# xmcd
#
# Track frame offsets:
#	150
#	15225
#	27409
#	35959
#	42470
#	56143
#	63365
#	69315
#	79389
#	94590
#	108988
#	115819
#	132179
#	142778
#	152122
#	156866
#	162334
#	172481
#	185546
#	199900
#	213943
#
# Disc length: 3073 seconds
#
# Revision: 0
# Processed by: cddbd v1.5.2PL0 Copyright (c) Steve Scherf et al.
# Submitted via: EasyCDDAExtractor 16.0.6.1
#
DISCID=2c0bff15
DTITLE=Συλλογικός δίσκος - Ο Λιόντας-μουσικές επαγγελμάτων
DYEAR=2006
DGENRE=Ποικίλη
TTITLE0=Μπενάτσης Κώστας - Ο καλατζής [1930, κομπανία Νίκου Τζάρα]
TTITLE1=Σόντης Γάκης - Μπαίνω μέσ' στ' αμπέλι [1930]
TTITLE2=Σαμίου Δόμνα - Ήλιε μ' και τι πολυάργιασες [2005]
TTITLE3=Άνευ ερμηνευτού - Αμπέλι μου πλατύφυλλο [1975, λαούτο Σπ. Τσιγουρής]
TTITLE4=Άνευ ερμηνευτού - Βάτους κι αγκάθια [1928(;) κλ. Γιάννης Κυριακάτης]
TTITLE5=Άνευ ερμηνευτού - Ρα καμπάνα Παπαντήσε [1999, πίπ. Δημ. Μπισταράκης, ν
TTITLE5=ταούλι Δημ. Πάλλης]
TTITLE6=Άνευ ερμηνευτού - Σόλο ντέφι [1995, ντ. Robert Zenouni]
TTITLE7=Άνευ ερμηνευτού - Το καναρίνι [1995, λατ. Πάνος Ιωαννίδης]
TTITLE8=Θεοδωρόπουλος Ντίνος - Ο Καραγκιόζης υπηρέτης [1928, κρπ. Ντίνος Θεοδω
TTITLE8=ρόπουλος]
TTITLE9=Άνευ ερμηνευτού - Χασαποσέρβικο [1928]
TTITLE10=Άγνωστος - Φωνές και σφυρίγματα τσοπάνη-ήχοι κουδουνιών [2002]
TTITLE11=Άνευ ερμηνευτού - Ήχος κουδουνιών από κοπάδι [2003]
TTITLE12=Άνευ ερμηνευτού - Σκάρος [1975, φλ. Γιώργος Μάρρας]
TTITLE13=Άνευ ερμηνευτού - Ηχητικό δείγμα από κυπριά [2005]
TTITLE14=Άνευ ερμηνευτού - Ηχητικό δείγμα σφυρήλατων κουδουνιών [2005]
TTITLE15=Λάμπρου Αναστάσιος - Βόγα του κουπιού [1956]
TTITLE16=Άνευ ερμηνευτού - Σούστα καλύμνικη [1981, βιο. Μικές Τσουνιάς, λ. Μαν
TTITLE16=Τσουνιάς]
TTITLE17=Μαύρου Πόπη-χορωδία - Μέσ' στα Πετρωτά [1981, βιο. Μικές Τσουνιάς, λ.
TTITLE17=Μαν. Τσουνιάς]
TTITLE18=Άνευ ερμηνευτού - Ο μηχανικός [1981, βιο. Μικές Τσουνιάς, λ. Μαν. Τσο
TTITLE18=υνιάς]
TTITLE19=Γκίνης Παντελής-ομάδα ανδρών - Ντιρλαντά [1966]
TTITLE20=Πάππος Μανώλης-ομάδα ανδρών - Γιώ Μαριώ [1992]
EXTD=
EXTT0=
EXTT1=
EXTT2=
EXTT3=
EXTT4=
EXTT5=
EXTT6=
EXTT7=
EXTT8=
EXTT9=
EXTT10=
EXTT11=
EXTT12=
EXTT13=
EXTT14=
EXTT15=
EXTT16=
EXTT17=
EXTT18=
EXTT19=
EXTT20=
PLAYORDER=
